<?xml version="1.0" encoding="utf-8"?>
<!-- Generator: Adobe Illustrator 26.0.1, SVG Export Plug-In . SVG Version: 6.00 Build 0)  -->
<svg version="1.1" id="Layer_1" xmlns="http://www.w3.org/2000/svg" xmlns:xlink="http://www.w3.org/1999/xlink" x="0px" y="0px"
	 viewBox="0 0 54.1 54.1" style="enable-background:new 0 0 54.1 54.1;" xml:space="preserve" width="128px" height="128px">
<style type="text/css">
	.st0{fill:#FF8600;}
	.st1{fill:#FFFFFF;}
</style>
<g>
	<path class="st0" d="M5.4,53.5c-2.7,0-4.9-2.2-4.9-4.8V5.4c0-2.7,2.2-4.9,4.9-4.9h43.2c2.6,0,4.9,2.2,5,4.9v43.2
		c0,2.7-2.2,4.9-4.9,4.9H5.4z"/>
	<path class="st1" d="M48.6,1C51,1,53,3,53.1,5.4v43.2c0,2.4-2,4.4-4.4,4.4H5.4C3,53,1,51,1,48.7V5.4C1,3,3,1,5.4,1H48.6 M48.6,0
		H5.4C2.5,0,0,2.5,0,5.4v43.3C0,51.6,2.5,54,5.4,54h43.3c2.9,0,5.4-2.5,5.4-5.4V5.4C54,2.4,51.5,0,48.6,0L48.6,0z"/>
</g>
<path class="st1" d="M14.2,18.2v4.7c0,0,1.2-0.3,3.2-2.1V40h4.8V14.4H18C18,14.4,17.1,17,14.2,18.2z"/>
<path class="st1" d="M37,30.5V14.4h-7l-4.7,15.5v4.4h6.9v5.7H37v-5.7h3.1v-3.7H37z M32.5,30.5h-3.4l3.4-12.9h0V30.5z"/>
</svg>
